<svg width="77" height="77" viewBox="0 0 77 77" fill="none" xmlns="http://www.w3.org/2000/svg">
<path d="M38.5 0C28.3011 0 19.0358 3.97272 12.148 10.4467L10.8281 9.12691V6.01562C10.8281 5.8135 10.7668 5.63303 10.6789 5.4658C10.6621 5.39 10.62 5.30819 10.5237 5.21194L5.66431 0.352516H5.66311C5.44534 0.133547 5.14456 0 4.8125 0C4.14717 0 3.60938 0.537797 3.60938 1.20312V3.60938H1.20312C0.537797 3.60938 0 4.14717 0 4.8125C0 5.14456 0.13475 5.44534 0.352516 5.66311V5.66431L5.16381 10.4744L5.16622 10.4768L5.21434 10.5249C5.31059 10.6212 5.3912 10.6633 5.467 10.6801C5.63303 10.7668 5.8147 10.8281 6.01562 10.8281H9.12691L10.4467 12.148C3.97272 19.0358 0 28.3011 0 38.5C0 59.7628 17.2372 77 38.5 77C59.7628 77 77 59.7628 77 38.5C77 17.2372 59.7628 0 38.5 0ZM8.42188 8.42188H6.51492L4.11228 6.02044L6.01562 6.01562L6.03006 4.12191L8.42188 6.51372V8.42188ZM38.5 74.5938C18.5666 74.5938 2.40625 58.4334 2.40625 38.5C2.40625 28.9664 6.10947 20.3003 12.148 13.8492L15.5504 17.2516C10.3818 22.8317 7.21875 30.2947 7.21875 38.5C7.21875 55.7757 21.2243 69.7812 38.5 69.7812C55.7757 69.7812 69.7812 55.7757 69.7812 38.5C69.7812 21.2243 55.7757 7.21875 38.5 7.21875C30.2947 7.21875 22.8317 10.3818 17.2516 15.5504L13.8492 12.148C20.3015 6.10947 28.9652 2.40625 38.5 2.40625C58.4334 2.40625 74.5938 18.5666 74.5938 38.5C74.5938 58.4334 58.4334 74.5938 38.5 74.5938ZM20.6757 22.3769C16.8113 26.6444 14.4375 32.2883 14.4375 38.5C14.4375 51.7897 25.2103 62.5625 38.5 62.5625C51.7897 62.5625 62.5625 51.7897 62.5625 38.5C62.5625 25.2103 51.7897 14.4375 38.5 14.4375C32.2883 14.4375 26.6444 16.8113 22.3769 20.6757L18.9528 17.2528C24.0962 12.5173 30.9588 9.625 38.5 9.625C54.4474 9.625 67.375 22.5526 67.375 38.5C67.375 54.4474 54.4474 67.375 38.5 67.375C22.5526 67.375 9.625 54.4474 9.625 38.5C9.625 30.9588 12.5185 24.095 17.2516 18.954L20.6757 22.3769ZM25.7794 27.4806C23.2179 30.4355 21.6562 34.2818 21.6562 38.5C21.6562 47.8026 29.1974 55.3438 38.5 55.3438C47.8026 55.3438 55.3438 47.8026 55.3438 38.5C55.3438 29.1974 47.8026 21.6562 38.5 21.6562C34.2818 21.6562 30.4355 23.2179 27.4806 25.7794L24.0781 22.3769C27.9089 18.9468 32.9536 16.8438 38.5 16.8438C50.4603 16.8438 60.1562 26.5397 60.1562 38.5C60.1562 50.4603 50.4603 60.1562 38.5 60.1562C26.5397 60.1562 16.8438 50.4603 16.8438 38.5C16.8438 32.9536 18.9468 27.9089 22.3769 24.0781L25.7794 27.4806ZM30.9035 32.6047C29.6366 34.2349 28.875 36.2754 28.875 38.5C28.875 43.8154 33.1846 48.125 38.5 48.125C43.8154 48.125 48.125 43.8154 48.125 38.5C48.125 33.1846 43.8154 28.875 38.5 28.875C36.2754 28.875 34.2349 29.6366 32.6047 30.9035L29.183 27.4818C31.6987 25.3522 34.9472 24.0625 38.5 24.0625C46.4731 24.0625 52.9375 30.5269 52.9375 38.5C52.9375 46.4731 46.4731 52.9375 38.5 52.9375C30.5269 52.9375 24.0625 46.4731 24.0625 38.5C24.0625 34.9472 25.3522 31.6987 27.4818 29.183L30.9035 32.6047ZM37.6494 39.3506C38.1198 39.821 38.8802 39.821 39.3506 39.3506C39.821 38.8802 39.821 38.1198 39.3506 37.6494L34.3215 32.6203C35.5018 31.7805 36.9408 31.2812 38.5 31.2812C42.486 31.2812 45.7188 34.514 45.7188 38.5C45.7188 42.486 42.486 45.7188 38.5 45.7188C34.514 45.7188 31.2812 42.486 31.2812 38.5C31.2812 36.942 31.7805 35.5018 32.6203 34.3215L37.6494 39.3506Z" fill="#E8D9BA"/>
</svg>
