<svg width="77" height="67" viewBox="0 0 77 67" fill="none" xmlns="http://www.w3.org/2000/svg">
<path d="M13.3307 41.6169L9.33811 50.1311C9.15343 50.5233 9.23436 50.9944 9.54148 51.3015C9.74069 51.5028 10.0063 51.6066 10.2761 51.6066C10.4234 51.6066 10.5728 51.5754 10.7119 51.5111L24.7688 44.9973C26.3812 45.1944 27.8587 45.2898 29.2719 45.2898C45.4144 45.2898 58.5458 35.13 58.5458 22.6439C58.5479 10.1599 45.4164 0 29.2739 0C13.1315 0 0 10.1599 0 22.6439C0 30.3904 4.96165 37.4189 13.3307 41.6169ZM29.2739 2.07514C44.271 2.07514 56.4728 11.3012 56.4728 22.6439C56.4728 33.9866 44.271 43.2147 29.2739 43.2147C27.8608 43.2147 26.3771 43.113 24.7356 42.9034C24.5447 42.8806 24.3455 42.9117 24.1691 42.9906L12.428 48.4295L15.6465 41.5671C15.7648 41.318 15.7752 41.0317 15.6818 40.7723C15.5884 40.5129 15.3934 40.2991 15.1423 40.185C6.96001 36.402 2.07514 29.8446 2.07514 22.6439C2.07514 11.3012 14.2769 2.07514 29.2739 2.07514Z" fill="#E8D9BA"/>
<path d="M15.0447 27.6574C15.3809 27.7383 15.7233 27.7798 16.0636 27.7798C17.344 27.7798 18.5331 27.2029 19.3258 26.1965C20.1185 25.19 20.3986 23.8827 20.0915 22.6106C19.7366 21.1373 18.5559 19.9565 17.0805 19.5996C15.4722 19.2095 13.8017 19.7885 12.8015 21.0626C12.0088 22.069 11.7287 23.3764 12.0358 24.6463C12.3886 26.1197 13.5693 27.3004 15.0447 27.6574ZM14.4305 22.3492C14.8269 21.8449 15.4224 21.5544 16.0636 21.5544C16.238 21.5544 16.4164 21.5772 16.5928 21.6187C17.3066 21.791 17.9001 22.3844 18.0724 23.0983C18.2301 23.7561 18.0952 24.4015 17.6926 24.912C17.1863 25.5553 16.3542 25.8354 15.5303 25.6403C14.8165 25.4681 14.223 24.8746 14.0508 24.1608C13.893 23.5029 14.0279 22.8597 14.4305 22.3492Z" fill="#E8D9BA"/>
<path d="M27.2901 27.6574C27.6263 27.7383 27.9687 27.7798 28.309 27.7798C29.5894 27.7798 30.7763 27.2029 31.569 26.1965C32.3617 25.19 32.6419 23.8827 32.3348 22.6106C31.9799 21.1373 30.7992 19.9565 29.3237 19.5996C27.7176 19.2095 26.0471 19.7885 25.0448 21.0626C24.2521 22.069 23.972 23.3743 24.277 24.6463C24.6319 26.1176 25.8147 27.3004 27.2901 27.6574ZM26.6759 22.3492C27.0722 21.8449 27.6678 21.5544 28.309 21.5544C28.4833 21.5544 28.6618 21.5772 28.8382 21.6187C29.552 21.791 30.1476 22.3844 30.3177 23.0983C30.4775 23.7561 30.3426 24.4015 29.938 24.912C29.4337 25.5573 28.6016 25.8375 27.7757 25.6403C27.0618 25.4681 26.4663 24.8746 26.294 24.1608C26.1363 23.5029 26.2712 22.8597 26.6759 22.3492Z" fill="#E8D9BA"/>
<path d="M39.5334 27.6574C39.8696 27.7383 40.212 27.7798 40.5523 27.7798C41.8327 27.7798 43.0217 27.2029 43.8144 26.1965C44.6071 25.19 44.8873 23.8827 44.5802 22.6106C44.2253 21.1373 43.0446 19.9565 41.5691 19.5996C39.963 19.2095 38.2904 19.7885 37.2902 21.0626C36.4975 22.069 36.2174 23.3743 36.5245 24.6463C36.8793 26.1197 38.0601 27.3004 39.5334 27.6574ZM38.9192 22.3492C39.3155 21.8449 39.9111 21.5544 40.5523 21.5544C40.7266 21.5544 40.9051 21.5772 41.0815 21.6187C41.7953 21.791 42.3888 22.3844 42.5611 23.0983C42.7188 23.7561 42.5839 24.4015 42.1813 24.912C41.675 25.5553 40.8408 25.8354 40.019 25.6403C39.3052 25.4681 38.7096 24.8746 38.5374 24.1608C38.3817 23.5029 38.5166 22.8597 38.9192 22.3492Z" fill="#E8D9BA"/>
<path d="M62.1732 25.3539C61.617 25.1982 61.0464 25.5053 60.8824 26.0532C60.7185 26.6031 61.0298 27.18 61.5797 27.3439C69.5627 29.722 74.9249 35.6631 74.9249 42.121C74.9249 47.6885 70.9468 52.9241 64.543 55.7857C64.0989 55.9849 63.8519 56.4643 63.9495 56.9416L65.1738 62.8785L58.5956 57.9086C58.3736 57.7426 58.0976 57.6803 57.8216 57.7094C56.4686 57.9044 55.1322 58.004 53.8456 58.004C46.2486 58.004 38.8984 54.1235 35.9725 48.5663C35.7069 48.0579 35.076 47.8649 34.5718 48.1306C34.0654 48.3982 33.8704 49.0249 34.1381 49.5313C37.4064 55.7421 45.5119 60.0792 53.8477 60.0792C55.0949 60.0792 56.3856 59.9941 57.6888 59.8239L66.1242 66.1946C66.3068 66.3336 66.5268 66.4042 66.7488 66.4042C66.9418 66.4042 67.1348 66.3523 67.3029 66.2444C67.6681 66.0141 67.8528 65.5804 67.7656 65.1591L66.1491 57.3276C72.8643 54.0551 77 48.2924 77 42.123C77 34.6214 71.1813 28.0412 62.1732 25.3539Z" fill="#E8D9BA"/>
</svg>
