<svg width="24" height="21" viewBox="0 0 24 21" fill="none" xmlns="http://www.w3.org/2000/svg">
<path fill-rule="evenodd" clip-rule="evenodd" d="M11.6095 0.384419C12.1301 0.89699 12.1301 1.72801 11.6095 2.24059L4.55228 9.18751H22.6667C23.4031 9.18751 24 9.77512 24 10.5C24 11.2249 23.4031 11.8125 22.6667 11.8125H4.55228L11.6095 18.7595C12.1301 19.272 12.1301 20.1031 11.6095 20.6156C11.0888 21.1281 10.2445 21.1281 9.72387 20.6156L0.39052 11.4281C0.14048 11.182 0 10.8481 0 10.5C0 10.1519 0.14048 9.81804 0.39052 9.57195L9.72387 0.384419C10.2445 -0.12814 11.0888 -0.12814 11.6095 0.384419Z" fill="#CCCCCC"/>
</svg>
