<svg width="24" height="21" viewBox="0 0 24 21" fill="none" xmlns="http://www.w3.org/2000/svg">
<path fill-rule="evenodd" clip-rule="evenodd" d="M12.3905 20.6156C11.8699 20.103 11.8699 19.272 12.3905 18.7594L19.4477 11.8125L1.33333 11.8125C0.596934 11.8125 8.54568e-07 11.2249 9.17941e-07 10.5C9.81313e-07 9.77509 0.596934 9.18748 1.33333 9.18748L19.4477 9.18748L12.3905 2.24054C11.8699 1.72801 11.8699 0.89693 12.3905 0.384398C12.9112 -0.128133 13.7555 -0.128133 14.2761 0.384399L23.6095 9.57191C23.8595 9.81801 24 10.1519 24 10.5C24 10.8481 23.8595 11.182 23.6095 11.4281L14.2761 20.6156C13.7555 21.1281 12.9112 21.1281 12.3905 20.6156Z" fill="#CCCCCC"/>
</svg>
