<svg width="30" height="30" viewBox="0 0 30 30" fill="none" xmlns="http://www.w3.org/2000/svg">
<g clip-path="url(#clip0_18_122)">
<path d="M17.729 22.4032C15.9444 21.4629 13.9471 20.049 11.9498 18.0544C9.95104 16.0543 8.53574 14.0542 7.59678 12.2669L9.14386 8.11293L3.9288 0L2.21012 1.72142L2.21149 1.72554C2.20051 1.7379 2.18678 1.74476 2.17306 1.75986C-2.16208 6.09362 0.172965 14.9671 7.60501 22.3991C15.0371 29.8298 23.9091 32.1634 28.2456 27.8311C28.258 27.8173 28.2676 27.8036 28.2786 27.7913L29.9973 26.0698L21.8871 20.8548L17.729 22.4032Z" fill="#E8D9BA"/>
<path d="M27.5936 15.615H29.9959C29.9959 7.0065 22.9921 0 14.3823 0V2.40231C21.6674 2.40231 27.5936 8.3312 27.5936 15.615Z" fill="#E8D9BA"/>
<path d="M22.789 15.6151H25.1913C25.1913 9.65323 20.3441 4.80469 14.3809 4.80469V7.20699C19.0167 7.20699 22.789 10.9793 22.789 15.6151Z" fill="#E8D9BA"/>
<path d="M17.9843 15.6151H20.3867C20.3867 12.3027 17.692 9.60938 14.3823 9.60938V12.0117C16.37 12.0117 17.9843 13.6288 17.9843 15.6151Z" fill="#E8D9BA"/>
</g>
<defs>
<clipPath id="clip0_18_122">
<rect width="30" height="30" fill="white"/>
</clipPath>
</defs>
</svg>
