<svg width="71" height="92" viewBox="0 0 71 92" fill="none" xmlns="http://www.w3.org/2000/svg">
<path d="M13.0732 5.39026H5.39024C4.22588 5.39026 3.1092 5.8528 2.28587 6.67613C1.46254 7.49946 1 8.61614 1 9.7805V86.6098C1 87.7741 1.46254 88.8908 2.28587 89.7141C3.1092 90.5375 4.22588 91 5.39024 91H64.6585C65.8229 91 66.9396 90.5375 67.7629 89.7141C68.5862 88.8908 69.0488 87.7741 69.0488 86.6098V9.7805C69.0488 8.61614 68.5862 7.49946 67.7629 6.67613C66.9396 5.8528 65.8229 5.39026 64.6585 5.39026H35.0244" stroke="#E8D9BA" stroke-width="2" stroke-linecap="round" stroke-linejoin="round"/>
<path d="M8.68292 5.39024L11.7873 2.2859C12.6106 1.46257 13.7272 1.00002 14.8916 1H32.8293C33.4114 1 33.9698 1.23127 34.3815 1.64294C34.7931 2.0546 35.0244 2.61294 35.0244 3.19512V58.0732L24.0488 47.0976L13.0732 58.0732V5.39024" stroke="#E8D9BA" stroke-width="2" stroke-linecap="round" stroke-linejoin="round"/>
<path d="M13.0731 78.9268H56.9756" stroke="#E8D9BA" stroke-width="2" stroke-linecap="round" stroke-linejoin="round"/>
<path d="M35.0244 17.4634H56.9756" stroke="#E8D9BA" stroke-width="2" stroke-linecap="round" stroke-linejoin="round"/>
<path d="M35.0244 32.8293H56.9756" stroke="#E8D9BA" stroke-width="2" stroke-linecap="round" stroke-linejoin="round"/>
<path d="M35.0244 48.1951H56.9756" stroke="#E8D9BA" stroke-width="2" stroke-linecap="round" stroke-linejoin="round"/>
<path d="M13.0731 63.561H56.9756" stroke="#E8D9BA" stroke-width="2" stroke-linecap="round" stroke-linejoin="round"/>
</svg>
