<svg width="90" height="90" viewBox="0 0 90 90" fill="none" xmlns="http://www.w3.org/2000/svg">
<g clip-path="url(#clip0_9_141)">
<path d="M89.0926 70.7309L55.4264 36.402L64.4962 27.3322L67.6199 30.4558L74.6482 23.4275L51.2207 0L44.1926 7.02808L47.3162 10.1517L21.5459 35.9221L18.4222 32.7984L11.3941 39.8267L34.8214 63.2543L41.8497 56.226L38.7261 53.1023L47.6173 44.2111L81.2835 78.5403L89.0926 70.7309ZM48.8778 7.02808L51.2204 4.68546L69.9627 23.4275L67.6199 25.7704L66.8391 24.9896L49.6591 7.80932L48.8778 7.02808ZM37.1643 56.226L34.8214 58.5688L16.0794 39.8267L18.422 37.4839L19.203 38.2649L36.3833 55.4452L37.1643 56.226ZM23.8885 38.2649L49.6588 12.4946L62.1534 24.9893L53.1063 34.0365L49.2019 37.9411L36.3833 50.7597L23.8885 38.2649ZM53.0833 38.7449L84.4299 70.7082L81.3061 73.8318L49.9599 41.8685L53.0833 38.7449Z" fill="#E8D9BA"/>
<path d="M39.7819 73.4342H5.32512V80.0605H0.907585V90H45.0829V80.0605H39.7819V73.4342ZM8.63827 76.7474H36.4687V80.0605H8.63827V76.7474ZM41.7698 83.3737V86.6868H4.22074V83.3737H5.32512H39.7819H41.7698Z" fill="#E8D9BA"/>
</g>
<defs>
<clipPath id="clip0_9_141">
<rect width="90" height="90" fill="white"/>
</clipPath>
</defs>
</svg>
