<svg width="90" height="90" viewBox="0 0 90 90" fill="none" xmlns="http://www.w3.org/2000/svg">
<path d="M29.9962 86.4897C29.499 86.4897 29.0222 86.2921 28.6706 85.9406C28.319 85.589 28.1215 85.1121 28.1215 84.6149C28.1215 84.1177 28.319 83.6408 28.6706 83.2892C29.0222 82.9377 29.499 82.7401 29.9962 82.7401H43.1196V11.574C39.0673 11.9373 35.1739 13.3256 31.806 15.6083C28.4381 17.891 25.7063 20.993 23.8676 24.6224L23.2246 24.2681C22.5392 25.1697 21.5976 25.8434 20.523 26.201L32.7222 52.3408L31.871 52.7439H33.7458V54.6187H33.757C31.6246 56.9795 29.0205 58.8667 26.1132 60.1584C23.2058 61.4501 20.0599 62.1175 16.8785 62.1175C13.6971 62.1175 10.5512 61.4501 7.64387 60.1584C4.73653 58.8667 2.13248 56.9795 0 54.6187V52.7439H1.87477L1.02177 52.3502L14.1451 24.2287L14.2782 24.2906C13.5267 23.31 13.1206 22.1083 13.1234 20.8729H16.8729C16.8729 21.3701 17.0704 21.847 17.422 22.1985C17.7736 22.5501 18.2504 22.7477 18.7477 22.7477C19.2449 22.7477 19.7217 22.5501 20.0733 22.1985C20.4249 21.847 20.6224 21.3701 20.6224 20.8729H21.736C23.8457 17.4285 26.6867 14.4899 30.058 12.2652C33.4292 10.0405 37.2483 8.584 41.2448 7.99887C41.2448 7.91638 41.2448 7.83327 41.2448 7.74953C41.2448 6.75509 41.6399 5.80138 42.343 5.09821C43.0462 4.39504 43.9999 4 44.9944 4C45.9888 4 46.9425 4.39504 47.6457 5.09821C48.3489 5.80138 48.7439 6.75509 48.7439 7.74953C48.7439 7.83327 48.7439 7.91638 48.7439 7.99887C52.7384 8.58556 56.5553 10.0428 59.9245 12.2674C63.2937 14.4921 66.1329 17.4298 68.2414 20.8729H69.3663C69.3663 21.3701 69.5639 21.847 69.9154 22.1985C70.267 22.5501 70.7439 22.7477 71.2411 22.7477C71.7383 22.7477 72.2151 22.5501 72.5667 22.1985C72.9183 21.847 73.1158 21.3701 73.1158 20.8729H76.8654C76.8674 22.1085 76.4607 23.3102 75.7086 24.2906L75.8436 24.2287L88.967 52.3502L88.114 52.7439H89.9887V54.6187H90C87.8675 56.9795 85.2635 58.8667 82.3561 60.1584C79.4488 61.4501 76.3028 62.1175 73.1214 62.1175C69.9401 62.1175 66.7942 61.4501 63.8868 60.1584C60.9795 58.8667 58.3754 56.9795 56.243 54.6187V52.7439H58.1177L57.2647 52.3502L69.4638 26.2103C68.3881 25.8521 67.4457 25.177 66.7604 24.2737L66.1117 24.6299C64.2756 20.9998 61.5458 17.8967 58.1795 15.6126C54.8131 13.3286 50.9208 11.9388 46.8691 11.574V82.7401H59.9925C60.4897 82.7401 60.9665 82.9377 61.3181 83.2892C61.6697 83.6408 61.8672 84.1177 61.8672 84.6149C61.8672 85.1121 61.6697 85.589 61.3181 85.9406C60.9665 86.2921 60.4897 86.4897 59.9925 86.4897H29.9962ZM73.1158 58.3682C77.2102 58.364 81.1958 57.0501 84.49 54.6187H61.7492C65.0414 57.0484 69.0241 58.3621 73.1158 58.3682ZM16.8729 58.3682C20.9672 58.3637 24.9527 57.0499 28.2471 54.6187H5.50621C8.79835 57.0486 12.7811 58.3624 16.8729 58.3682ZM87.0716 52.7439L74.3757 25.5373C73.4927 26.1334 72.4579 26.4651 71.3929 26.4934L59.1432 52.7401L87.0716 52.7439ZM30.8286 52.7439L18.577 26.4972C17.5127 26.4685 16.4786 26.1369 15.5962 25.5411L2.90775 52.7439H30.8286Z" fill="#E8D9BA"/>
</svg>
