<svg width="90" height="90" viewBox="0 0 90 90" fill="none" xmlns="http://www.w3.org/2000/svg">
<path d="M29.5125 6.96209C36.0779 6.96209 41.4004 12.6455 41.4004 19.656C41.4004 26.6665 36.0779 32.3499 29.5125 32.3499C22.9471 32.3499 17.6246 26.6665 17.6246 19.656C17.6246 12.6455 22.9468 6.96209 29.5125 6.96209ZM10.3579 54.5386C10.3579 53.5855 10.9314 52.9391 11.8557 52.9391C12.78 52.9391 13.3536 53.5516 13.3536 54.5386V89.9996H46.0211V54.5386C46.0211 53.5855 46.5946 52.9391 47.5189 52.9391C48.4114 52.9391 49.0168 53.5516 49.0168 54.5386V89.9996H59.4068V51.3397C59.4068 42.5936 52.7139 35.4809 44.555 35.4809H41.5593L32.8268 49.9783L31.775 39.1221L33.2093 35.4466H26.7714L28.2057 39.1221L27.0904 50.0461L18.3575 35.4809H14.8518C6.66107 35.4809 0 42.6276 0 51.3397V90H10.39V54.5389L10.3579 54.5386ZM83.5714 18.6866H90V32.4155H55.3571V18.6866H61.7857V20.9748H66.0714V18.6866H79.2857V20.9748H83.5714V18.6866ZM90 6.86446V16.0171H55.3571V6.86446H66.4286V0H79.2857V6.86446H90ZM69.2857 6.86446H76.4286V2.66951H69.2857V6.86446Z" fill="#E8D9BA"/>
</svg>
