<svg width="90" height="90" viewBox="0 0 90 90" fill="none" xmlns="http://www.w3.org/2000/svg">
<path d="M39.0001 32.9999C38.1001 32.9999 37.5001 33.5999 37.5001 34.4999V82.4999C37.5001 83.3999 38.1001 83.9999 39.0001 83.9999C39.9001 83.9999 40.5 83.3999 40.5 82.4999V34.5001C40.5 33.6001 39.9001 32.9999 39.0001 32.9999Z" fill="#E8D9BA"/>
<path d="M32.9999 32.9999C32.0999 32.9999 31.5 33.5999 31.5 34.4999V82.4999C31.5 83.3999 32.0999 83.9999 32.9999 83.9999C33.8999 83.9999 34.4999 83.3999 34.4999 82.4999V34.5001C34.5001 33.6001 33.8999 32.9999 32.9999 32.9999Z" fill="#E8D9BA"/>
<path d="M57.0001 32.9999C56.1001 32.9999 55.5001 33.5999 55.5001 34.4999V82.4999C55.5001 83.3999 56.1001 83.9999 57.0001 83.9999C57.9001 83.9999 58.5 83.3999 58.5 82.4999V34.5001C58.5 33.6001 57.9001 32.9999 57.0001 32.9999Z" fill="#E8D9BA"/>
<path d="M45 32.9999C44.1 32.9999 43.5001 33.5999 43.5001 34.4999V82.4999C43.5001 83.3999 44.1 83.9999 45 83.9999C45.9 83.9999 46.4999 83.3999 46.4999 82.4999V34.5001C46.4999 33.6001 45.9 32.9999 45 32.9999Z" fill="#E8D9BA"/>
<path d="M50.9999 32.9999C50.0999 32.9999 49.5 33.5999 49.5 34.4999V82.4999C49.5 83.3999 50.0999 83.9999 50.9999 83.9999C51.8999 83.9999 52.4999 83.3999 52.4999 82.4999V34.5001C52.5001 33.6001 51.8999 32.9999 50.9999 32.9999Z" fill="#E8D9BA"/>
<path d="M45 21.0001C44.1 21.0001 43.5001 21.6 43.5001 22.5V28.4999C43.5001 29.3999 44.1 29.9999 45 29.9999C45.9 29.9999 46.4999 29.2498 46.4999 28.4999V22.5C46.4999 21.6 45.9 21.0001 45 21.0001Z" fill="#E8D9BA"/>
<path d="M45 12.0001C44.1 12.0001 43.5001 12.6 43.5001 13.5V16.5001C43.5001 17.4001 44.1 18 45 18C45.9 18 46.4999 17.4001 46.4999 16.5001V13.5C46.4999 12.6 45.9 12.0001 45 12.0001Z" fill="#E8D9BA"/>
<path d="M39.0001 21.0001C38.1001 21.0001 37.5001 21.6 37.5001 22.5V28.4999C37.5001 29.3999 38.1001 29.9999 39.0001 29.9999C39.9001 29.9999 40.5 29.2498 40.5 28.4999V22.5C40.5 21.6 39.9001 21.0001 39.0001 21.0001Z" fill="#E8D9BA"/>
<path d="M50.9999 21.0001C50.0999 21.0001 49.5 21.6 49.5 22.5V28.4999C49.5 29.3999 50.0999 29.9999 50.9999 29.9999C51.8999 29.9999 52.4999 29.2498 52.4999 28.4999V22.5C52.5001 21.6 51.8999 21.0001 50.9999 21.0001Z" fill="#E8D9BA"/>
<path d="M86.9999 39.0001H82.4999V34.5001C82.4999 33.6001 81.9 33.0001 81 33.0001H76.5V30.0001C76.5 29.1001 75.9001 28.5001 75.0001 28.5001C74.1001 28.5001 73.5001 29.1001 73.5001 30.0001V33.0001H69.0001C68.1001 33.0001 67.5002 33.6001 67.5002 34.5001V39.0001H64.5001V28.5001C64.5001 27.6001 63.9002 27.0002 63.0002 27.0002H58.5002V16.5001C58.5002 15.6001 57.9002 15.0001 57.0002 15.0001H52.5002V7.50006C52.5002 6.60006 51.9003 6.00012 51.0003 6.00012H46.5003V1.50012C46.4999 0.599941 45.9 0 45 0C44.1 0 43.5001 0.599941 43.5001 1.49994V5.99994H39.0001C38.1001 5.99994 37.5001 6.59988 37.5001 7.49988V14.9999H33.0001C32.1001 14.9999 31.5002 15.5999 31.5002 16.4999V27H27.0002C26.1002 27 25.5002 27.5999 25.5002 28.4999V32.9999H22.5V28.4999C22.5 27.5999 21.9001 27 21.0001 27H16.5001V23.9999C16.5001 23.0999 15.9001 22.5 15.0001 22.5C14.1001 22.5 13.5002 23.0999 13.5002 23.9999V27H9C8.1 27 7.50006 27.5999 7.50006 28.4999V32.9999H3.00006C2.10006 32.9999 1.50011 33.5999 1.50011 34.4999V88.4999C1.50011 89.3999 2.10006 89.9998 3.00006 89.9998H27H63H86.9999C87.8999 89.9998 88.4999 89.3999 88.4999 88.4999V40.5C88.5001 39.6 87.8999 39.0001 86.9999 39.0001ZM70.5001 36H79.5001V39.0001H70.5001V36ZM10.4999 30.0001H19.4999V33.0001H10.4999V30.0001ZM4.5 36H9H21.0001H25.5001V86.9999H4.5V36ZM28.4999 34.5001V30.0001H32.9999C33.8999 30.0001 34.4999 29.4001 34.4999 28.5001V18H38.9999C39.8999 18 40.4998 17.4001 40.4998 16.5001V9H49.4998V16.5001C49.4998 17.4001 50.0998 18 50.9998 18H55.4998V28.4999C55.4998 29.3999 56.0997 29.9999 56.9997 29.9999H61.4997V40.5V86.9999H28.4999V34.5001ZM85.5 86.9999H64.4999V41.9999H68.9999H81H85.5V86.9999Z" fill="#E8D9BA"/>
<path d="M21.0001 39.0001H8.99999C8.1 39.0001 7.50005 39.6 7.50005 40.5C7.50005 41.4 8.1 41.9999 8.99999 41.9999H21.0001C21.9001 41.9999 22.5 41.4 22.5 40.5C22.5 39.6 21.9001 39.0001 21.0001 39.0001Z" fill="#E8D9BA"/>
<path d="M21.0001 45H8.99999C8.1 45 7.50005 45.5999 7.50005 46.4999C7.50005 47.3999 8.1 47.9999 8.99999 47.9999H21.0001C21.9001 47.9999 22.5 47.3999 22.5 46.4999C22.5 45.5999 21.9001 45 21.0001 45Z" fill="#E8D9BA"/>
<path d="M21.0001 50.9999H8.99999C8.1 50.9999 7.50005 51.5999 7.50005 52.4999C7.50005 53.3999 8.1 54 8.99999 54H21.0001C21.9001 54 22.5 53.4001 22.5 52.5001C22.5 51.6001 21.9001 50.9999 21.0001 50.9999Z" fill="#E8D9BA"/>
<path d="M21.0001 57.0001H8.99999C8.1 57.0001 7.50005 57.6 7.50005 58.5C7.50005 59.4 8.1 59.9999 8.99999 59.9999H21.0001C21.9001 59.9999 22.5 59.4 22.5 58.5C22.5 57.6 21.9001 57.0001 21.0001 57.0001Z" fill="#E8D9BA"/>
<path d="M21.0001 63H8.99999C8.1 63 7.50005 63.5999 7.50005 64.4999C7.50005 65.3999 8.1 65.9999 8.99999 65.9999H21.0001C21.9001 65.9999 22.5 65.3999 22.5 64.4999C22.5 63.5999 21.9001 63 21.0001 63Z" fill="#E8D9BA"/>
<path d="M21.0001 68.9999H8.99999C8.1 68.9999 7.50005 69.5999 7.50005 70.4999C7.50005 71.3999 8.1 71.9998 8.99999 71.9998H21.0001C21.9001 71.9998 22.5 71.3999 22.5 70.4999C22.5 69.6001 21.9001 68.9999 21.0001 68.9999Z" fill="#E8D9BA"/>
<path d="M21.0001 75.0001H8.99999C8.1 75.0001 7.50005 75.6 7.50005 76.5C7.50005 77.4 8.1 77.9999 8.99999 77.9999H21.0001C21.9001 77.9999 22.5 77.4 22.5 76.5C22.5 75.6 21.9001 75.0001 21.0001 75.0001Z" fill="#E8D9BA"/>
<path d="M21.0001 81H8.99999C8.1 81 7.50005 81.5999 7.50005 82.4999C7.50005 83.3999 8.1 83.9999 8.99999 83.9999H21.0001C21.9001 83.9999 22.5 83.3999 22.5 82.4999C22.5 81.5999 21.9001 81 21.0001 81Z" fill="#E8D9BA"/>
<path d="M68.9999 45C68.0999 45 67.5 45.5999 67.5 46.4999C67.5 47.3999 68.0999 47.9999 68.9999 47.9999H81C81.9 47.9999 82.4999 47.3999 82.4999 46.4999C82.4999 45.5999 81.9 45 81 45H68.9999Z" fill="#E8D9BA"/>
<path d="M81 50.9999H68.9999C68.0999 50.9999 67.5 51.5999 67.5 52.4999C67.5 53.3999 68.0999 53.9998 68.9999 53.9998H81C81.9 53.9998 82.4999 53.3999 82.4999 52.4999C82.4999 51.5999 81.9 50.9999 81 50.9999Z" fill="#E8D9BA"/>
<path d="M81 57.0001H68.9999C68.0999 57.0001 67.5 57.6 67.5 58.5C67.5 59.4 68.0999 59.9999 68.9999 59.9999H81C81.9 59.9999 82.4999 59.4 82.4999 58.5C82.4999 57.6 81.9 57.0001 81 57.0001Z" fill="#E8D9BA"/>
<path d="M81 63H68.9999C68.0999 63 67.5 63.5999 67.5 64.4999C67.5 65.3999 68.0999 65.9999 68.9999 65.9999H81C81.9 65.9999 82.4999 65.3999 82.4999 64.4999C82.4999 63.5999 81.9 63 81 63Z" fill="#E8D9BA"/>
<path d="M81 68.9999H68.9999C68.0999 68.9999 67.5 69.5999 67.5 70.4999C67.5 71.3999 68.0999 71.9998 68.9999 71.9998H81C81.9 71.9998 82.4999 71.3999 82.4999 70.4999C82.4999 69.6001 81.9 68.9999 81 68.9999Z" fill="#E8D9BA"/>
<path d="M81 75.0001H68.9999C68.0999 75.0001 67.5 75.6 67.5 76.5C67.5 77.4 68.0999 77.9999 68.9999 77.9999H81C81.9 77.9999 82.4999 77.4 82.4999 76.5C82.4999 75.6 81.9 75.0001 81 75.0001Z" fill="#E8D9BA"/>
<path d="M81 81H68.9999C68.0999 81 67.5 81.5999 67.5 82.4999C67.5 83.3999 68.0999 83.9999 68.9999 83.9999H81C81.9 83.9999 82.4999 83.3999 82.4999 82.4999C82.4999 81.5999 81.9 81 81 81Z" fill="#E8D9BA"/>
</svg>
