<svg width="79" height="78" viewBox="0 0 79 78" fill="none" xmlns="http://www.w3.org/2000/svg">
<path d="M39.5 0C49.9761 0 60.023 4.10892 67.4307 11.4228C74.8384 18.7368 79 28.6566 79 39C79 49.3434 74.8384 59.2632 67.4307 66.5772C60.023 73.8911 49.9761 78 39.5 78C29.0239 78 18.977 73.8911 11.5693 66.5772C4.16159 59.2632 0 49.3434 0 39C0 28.6566 4.16159 18.7368 11.5693 11.4228C18.977 4.10892 29.0239 0 39.5 0ZM34.5794 46.6941L25.8048 38.025C25.4902 37.7144 25.1168 37.468 24.7058 37.3C24.2948 37.1319 23.8543 37.0454 23.4094 37.0454C22.9645 37.0454 22.524 37.1319 22.113 37.3C21.702 37.468 21.3286 37.7144 21.014 38.025C20.3787 38.6523 20.0218 39.503 20.0218 40.3901C20.0218 41.2771 20.3787 42.1279 21.014 42.7551L32.1869 53.7866C32.5005 54.0987 32.8737 54.3465 33.2848 54.5155C33.6959 54.6846 34.1369 54.7716 34.5822 54.7716C35.0276 54.7716 35.4686 54.6846 35.8797 54.5155C36.2908 54.3465 36.664 54.0987 36.9776 53.7866L60.1134 30.9381C60.4321 30.6288 60.6857 30.2603 60.8595 29.8537C61.0333 29.4472 61.1238 29.0107 61.1259 28.5694C61.128 28.1282 61.0416 27.6909 60.8716 27.2827C60.7017 26.8746 60.4516 26.5037 60.1357 26.1915C59.8199 25.8793 59.4445 25.6319 59.0314 25.4636C58.6182 25.2954 58.1754 25.2095 57.7285 25.211C57.2816 25.2126 56.8394 25.3015 56.4274 25.4726C56.0154 25.6437 55.6419 25.8936 55.3282 26.208L34.5794 46.6941Z" fill="#E8D9BA"/>
</svg>
