<svg width="25" height="25" viewBox="0 0 25 25" fill="none" xmlns="http://www.w3.org/2000/svg">
<path fill-rule="evenodd" clip-rule="evenodd" d="M19.7763 17.6514C19.475 18.5041 18.2775 19.2096 17.3225 19.4159C16.6688 19.5547 15.8162 19.6645 12.9437 18.4741C9.71749 17.1375 5.2375 12.3762 5.2375 9.20776C5.2375 7.59478 6.1675 5.71655 7.79375 5.71655C8.57625 5.71655 8.74875 5.73181 9.00625 6.34949C9.3075 7.07721 10.0425 8.87016 10.13 9.05396C10.4913 9.80793 9.76249 10.2493 9.23374 10.9058C9.06499 11.1033 8.87376 11.317 9.08751 11.6846C9.3 12.0447 10.035 13.2426 11.115 14.2041C12.51 15.447 13.6412 15.8438 14.0462 16.0126C14.3475 16.1376 14.7075 16.1085 14.9275 15.8734C15.2063 15.5721 15.5525 15.0721 15.905 14.5795C16.1537 14.2269 16.47 14.1828 16.8013 14.3079C17.025 14.3854 19.8687 15.706 19.9887 15.9174C20.0775 16.0712 20.0775 16.7986 19.7763 17.6514ZM12.5025 0H12.4962C5.60499 0 0 5.60669 0 12.5C0 15.2333 0.881259 17.7692 2.38001 19.826L0.822506 24.4708L5.62626 22.9358C7.60251 24.2437 9.96125 25 12.5025 25C19.3937 25 25 19.3933 25 12.5C25 5.60669 19.3937 0 12.5025 0Z" fill="#E8D9BA"/>
</svg>
